<svg fill="none" height="631" viewBox="0 0 436 631" width="436" xmlns="http://www.w3.org/2000/svg">
    <path d="m13.5 508v-168c71.5 31.5 171.5 145.5 209 278 31-132.5 99-215 199-278v168"
        stroke="#faf3e7" stroke-linecap="round" stroke-linejoin="round" stroke-width="25.43" />
    <path
        d="m425.881 202.87c12.931 5.305 12.931 24.215 0 29.521-105.674 43.356-149.213 86.89-192.571 192.57-5.305 12.931-24.215 12.931-29.521 0-43.356-105.674-86.89-149.213-192.5698-192.571-12.93085-5.305-12.93107-24.215-.0003-29.521 105.6741-43.356 149.2131-86.89 192.5711-192.5697 5.305-12.93087 24.215-12.93109 29.521-.0003 43.356 105.674 86.89 149.213 192.57 192.571z"
        fill="#faf3e7" />
</svg>